<svg width="1200" height="760" viewBox="0 0 1200 760" fill="none" xmlns="http://www.w3.org/2000/svg">
  <rect width="1200" height="760" rx="48" fill="#19110E"/>
  <rect width="1200" height="760" rx="48" fill="url(#bg)"/>
  <circle cx="950" cy="120" r="165" fill="#C96934" opacity="0.32"/>
  <circle cx="220" cy="622" r="180" fill="#49281C" opacity="0.58"/>
  <ellipse cx="604" cy="410" rx="320" ry="82" fill="#0F0A08" opacity="0.28"/>
  <rect x="292" y="236" width="616" height="292" rx="42" fill="#2A1B15"/>
  <rect x="338" y="301" width="240" height="148" rx="36" transform="rotate(-8 338 301)" fill="#C48B57"/>
  <rect x="620" y="284" width="240" height="148" rx="36" transform="rotate(8 620 284)" fill="#C48B57"/>
  <rect x="358" y="286" width="200" height="118" rx="30" transform="rotate(-8 358 286)" fill="#F0D3A2"/>
  <rect x="640" y="300" width="200" height="118" rx="30" transform="rotate(8 640 300)" fill="#F0D3A2"/>
  <g fill="#C34B34">
    <circle cx="420" cy="336" r="26"/>
    <circle cx="478" cy="352" r="24"/>
    <circle cx="520" cy="320" r="22"/>
    <circle cx="680" cy="335" r="26"/>
    <circle cx="736" cy="318" r="24"/>
    <circle cx="790" cy="350" r="24"/>
  </g>
  <g stroke="#5C8D45" stroke-width="12" stroke-linecap="round">
    <path d="M410 380C433 345 457 339 491 356"/>
    <path d="M516 366C493 338 494 312 523 296"/>
    <path d="M668 378C683 350 710 340 748 352"/>
    <path d="M782 365C763 341 762 313 787 297"/>
  </g>
  <g fill="#F4E8D1">
    <circle cx="596" cy="248" r="10"/>
    <circle cx="552" cy="521" r="8"/>
    <circle cx="855" cy="515" r="9"/>
    <circle cx="322" cy="476" r="8"/>
  </g>
  <rect x="84" y="82" width="232" height="88" rx="24" fill="#231713" fill-opacity="0.9"/>
  <text x="118" y="136" fill="#F7DFC0" font-size="40" font-family="Georgia, serif">Bruschetta</text>
  <defs>
    <linearGradient id="bg" x1="128" y1="58" x2="1070" y2="694" gradientUnits="userSpaceOnUse">
      <stop stop-color="#2D1B15"/>
      <stop offset="0.54" stop-color="#19110E"/>
      <stop offset="1" stop-color="#24140F"/>
    </linearGradient>
  </defs>
</svg>
